<svg class="iconph" xmlns="http://www.w3.org/2000/svg" viewBox="0 0 64 64"><path d="M62.524,62.5H52.115l-0.075-0.919c-0.045-0.55-0.079-1.096-0.113-1.64c-0.073-1.157-0.142-2.25-0.306-3.33 c-0.966-6.337-6.109-10.832-12.508-10.93c-2.544-0.038-5.092-0.029-7.699-0.021c-0.848,0.003-1.703,0.007-2.566,0.008v6.157h9.004 c3.34,0,5.524,0.721,6.873,2.269c1.386,1.59,1.806,3.967,1.321,7.479l-0.118,0.863h-28.07l-0.001-20.493 c-0.001-5.232-0.003-10.465,0.006-15.697c0.012-5.431,2.915-8.303,8.396-8.306l12.894-0.001c4.213,0,6.416,2.741,6.416,5.449 c0,2.67-2.145,5.374-6.243,5.374l-10.51,0.002l-0.005,5.788c2.575-0.01,9.46-0.035,13.107-0.035c5.656,0,9.104-5.46,9.478-10.597 c0.087-1.204,0.008-4.306-2.602-7.109c-2.722-2.926-7.354-4.473-13.393-4.473l-9.805-0.001c-7.798,0.012-13.271,5.472-13.309,13.277 l-0.024,36.839H1.501l0-15.509C1.5,40.004,1.5,33.064,1.507,26.123C1.523,11.647,11.65,1.533,26.133,1.525l11.312,0.002 c15.543,0,24.822,8.721,24.822,23.328c0,8.734-5.412,13.666-7.972,15.509c2.606,2.118,8.229,8.189,8.229,21.136V62.5z M53.967,60.5 h6.546c-0.355-14.55-8.402-19.258-8.485-19.305l-1.568-0.885l1.581-0.864c0.336-0.184,8.227-4.613,8.227-14.591 c0-13.554-8.318-21.328-22.822-21.328L26.133,3.525c-13.307,0.007-22.611,9.301-22.626,22.6C3.5,33.065,3.5,40.005,3.501,46.944 l0,13.509h6.764l0.023-34.844c0.042-8.836,6.48-15.257,15.307-15.271l9.807,0.001c8.35,0,12.688,2.779,14.857,5.111 c3.144,3.379,3.237,7.151,3.131,8.616c-0.438,6.037-4.607,12.452-11.472,12.452c-4.541,0-14.104,0.039-14.104,0.039l-1.005,0.004 l0.009-9.795l12.508-0.002c2.916,0,4.243-1.749,4.243-3.374c0-1.661-1.382-3.449-4.416-3.449L26.26,19.941 c-4.414,0.002-6.387,1.949-6.396,6.31c-0.009,5.23-0.008,10.461-0.006,15.692l0.001,18.494h24.308 c0.228-2.388-0.085-4.037-0.948-5.028c-0.929-1.065-2.684-1.583-5.366-1.583H26.848V43.67h1c1.202,0,2.387-0.004,3.559-0.009 c2.619-0.009,5.179-0.018,7.737,0.021c7.395,0.113,13.338,5.307,14.453,12.629c0.178,1.167,0.253,2.355,0.325,3.505 C53.938,60.043,53.951,60.271,53.967,60.5z"/></svg>
